# xmcd
#
# Track frame offsets: 
#        150
#        16829
#        31292
#        60200
#        84976
#        109510
#        126172
#        150086
#        169777
#        218889
#        237882
#        277198
#        305795
#
# Disc length: 4376 seconds
#
# Revision: 0
# Processed by: cddbd v1.5.2PL0 Copyright (c) Steve Scherf et al.
# Submitted via: ExactAudioCopyFreeDBPlugin 1.0
#
DISCID=9d11160d
DTITLE=King Of The World - Live At Paradiso
DYEAR=2015
DGENRE=Blues
TTITLE0=Messing With My Mind
TTITLE1=On My Way Back Home
TTITLE2=If You Want To Leave
TTITLE3=Let's Go Get Stoned
TTITLE4=Bluesified
TTITLE5=Evil Thing
TTITLE6=Do It
TTITLE7=Better Leave While You Can
TTITLE8=Can't Go Home
TTITLE9=Number One
TTITLE10=Broke And Lonely
TTITLE11=Woman Across The River
TTITLE12=Beating Like A Dream
EXTD=
EXTT0=
EXTT1=
EXTT2=
EXTT3=
EXTT4=
EXTT5=
EXTT6=
EXTT7=
EXTT8=
EXTT9=
EXTT10=
EXTT11=
EXTT12=
PLAYORDER=
